<svg xmlns="http://www.w3.org/2000/svg" xmlns:xlink="http://www.w3.org/1999/xlink" id="Layer_1" x="0px" y="0px" viewBox="0 0 494.9 676.9" style="enable-background:new 0 0 494.9 676.9;" xml:space="preserve"><g>	<g>		<path d="M247.5,239.5c-61.9,0-112.1,50.2-112.1,112.1s50.2,112.1,112.1,112.1s112.1-50.2,112.1-112.1S309.4,239.5,247.5,239.5z    M247.5,435.8c-46.5,0-84.2-37.7-84.2-84.2s37.7-84.2,84.2-84.2s84.2,37.7,84.2,84.2S294,435.8,247.5,435.8z"></path>		<ellipse transform="matrix(0.982 -0.1891 0.1891 0.982 -94.3516 56.228)" cx="247.5" cy="522.5" rx="18.9" ry="18.9"></ellipse>		<polygon points="254.5,199.5 189.1,153.6 204.6,135.4 270,181.3   "></polygon>	</g></g></svg>