<?xml version="1.0" encoding="utf-8"?>
<!-- Generator: Adobe Illustrator 27.7.0, SVG Export Plug-In . SVG Version: 6.00 Build 0)  -->
<svg version="1.1" id="Layer_1" xmlns="http://www.w3.org/2000/svg" xmlns:xlink="http://www.w3.org/1999/xlink" x="0px" y="0px"
	 viewBox="0 0 1792 676.9" style="enable-background:new 0 0 1792 676.9;" xml:space="preserve">
<g>
	<path d="M257.7,345.9c15.5-3.3,42.7-18.7,42.7-51.3c0-31.5-29-53.3-61.3-53.3H135.4l0,216.1c0,0,61.4,0.7,105.4,0
		c43.6-0.7,64.7-30.8,64.7-58.9C305.5,378.1,293.8,354.2,257.7,345.9z M165.2,268.8h75.6c14.4,0,29.8,10.5,29.8,32.1
		c0,21.6-19,33.3-33.5,33.3l-71.9,0.3V268.8z M241.3,429.9l-76.1,0.3v-69.5h74.3c15.2,0,34.9,10.3,35,33.9
		C274.5,417.5,259.4,429.9,241.3,429.9z"/>
	<path d="M800.5,344.3c-44.7-15.8-85.9-18.7-85.9-46.5s31.2-32.3,49.5-30.9c18.8,1.5,45.4,8.7,49.3,44.6h30.7
		c-1-30.8-21.8-70.9-81.4-71.9c-44.7-0.8-78.7,20.4-78.7,60c0,42.4,47.1,52.4,63,58.2c23.7,8.6,75.7,14.3,73.6,46.4
		c-2,30.8-31.7,31.2-48.6,32.2c-28.9,1.7-62.7-16-63-42.9l-31.5,0.4c3.8,43.4,40.5,69,96.5,69.4c48.9,0.4,75.5-26.7,77-55.2
		C852.5,379.7,843.9,359.6,800.5,344.3z"/>
	<polygon points="1274.7,339.1 1213,246.3 1177.8,246.3 1259.7,367.7 1259.7,463 1289.6,463 1289.6,367.7 1371.6,246.3 
		1336.4,246.3 	"/>
	<g>
		<path d="M550,381.8c0,40.3-25.4,53.6-57.3,53.8c-32-0.2-57.3-13.5-57.3-53.8V243.2h-30.1v148.1c0,26.3,19.8,71.2,86.7,71.9v0
			c0.2,0,0.5,0,0.7,0c0.2,0,0.5,0,0.7,0v0c67-0.6,86.7-45.5,86.7-71.9V243.2H550V381.8z"/>
		<polygon points="498.4,199.5 433,153.6 448.4,135.4 513.9,181.3 		"/>
	</g>
	<g>
		<path d="M1544.5,239.5c-61.9,0-112.1,50.2-112.1,112.1s50.2,112.1,112.1,112.1c61.9,0,112.1-50.2,112.1-112.1
			S1606.4,239.5,1544.5,239.5z M1544.5,435.8c-46.5,0-84.2-37.7-84.2-84.2s37.7-84.2,84.2-84.2s84.2,37.7,84.2,84.2
			S1591,435.8,1544.5,435.8z"/>
		<ellipse transform="matrix(0.982 -0.1891 0.1891 0.982 -70.9484 301.5058)" cx="1544.5" cy="522.5" rx="18.9" ry="18.9"/>
		<polygon points="1551.5,199.5 1486.1,153.6 1501.6,135.4 1567,181.3 		"/>
	</g>
	<g>
		<path d="M1022,246.6L933.2,463h31.3l23.9-58.8h97.5l23.9,58.8h31.3l-88.8-216.4L1022,246.6z M999.2,377.6l38-93.6l38,93.6H999.2z"
			/>
		<polygon points="1016.2,184.6 1081.7,138.7 1097.1,156.9 1031.7,202.8 		"/>
	</g>
</g>
</svg>
