<svg xmlns:inkscape="http://www.inkscape.org/namespaces/inkscape" xmlns:sodipodi="http://sodipodi.sourceforge.net/DTD/sodipodi-0.dtd" xmlns="http://www.w3.org/2000/svg" xmlns:svg="http://www.w3.org/2000/svg" id="Layer_1" x="0px" y="0px" viewBox="0 0 494.9 676.9" style="enable-background:new 0 0 494.9 676.9;" xml:space="preserve" sodipodi:docname="92d0c834d25caf624daf6c6162e6e248.svg"><defs id="defs15"></defs><g id="g10">	<g id="g8">		<path d="M247.5,239.5c-61.9,0-112.1,50.2-112.1,112.1s50.2,112.1,112.1,112.1s112.1-50.2,112.1-112.1S309.4,239.5,247.5,239.5z     M247.5,435.8c-46.5,0-84.2-37.7-84.2-84.2s37.7-84.2,84.2-84.2s84.2,37.7,84.2,84.2S294,435.8,247.5,435.8z" id="path2"></path>		<ellipse transform="matrix(0.982 -0.1891 0.1891 0.982 -94.3516 56.228)" cx="247.5" cy="522.5" rx="18.9" ry="18.9" id="ellipse4"></ellipse>		<polygon points="254.5,199.5 189.1,153.6 204.6,135.4 270,181.3   " id="polygon6"></polygon>	</g></g></svg>