<svg xmlns="http://www.w3.org/2000/svg" viewBox="0 0 1521.23 406.11"><defs><style>.cls-1{fill:#fff;}</style></defs><g id="Layer_2" data-name="Layer 2"><g id="Layer_1-2" data-name="Layer 1"><path class="cls-1" d="M122.28,210.54c15.53-3.33,42.68-18.73,42.68-51.26C165,127.74,136,106,103.7,106H0L0,322.12s61.4.75,105.42,0c43.6-.74,64.68-30.77,64.68-58.87C170.14,242.72,158.42,218.84,122.28,210.54ZM29.81,133.4h75.6c14.41,0,29.81,10.47,29.81,32.07s-19,33.35-33.52,33.35l-71.89.25ZM105.9,294.56l-76.09.26v-69.5h74.25c15.25,0,34.94,10.33,35,33.94C139.13,282.12,124,294.56,105.9,294.56Z"></path><path class="cls-1" d="M665.17,208.89c-44.65-15.83-85.93-18.69-85.93-46.47s31.18-32.3,49.54-30.86c18.82,1.47,45.37,8.65,49.32,44.55h30.7c-1-30.77-21.77-70.89-81.42-72-44.74-.79-78.71,20.44-78.71,60,0,42.41,47.07,52.38,63,58.19,23.72,8.64,75.67,14.34,73.62,46.38-2,30.81-31.74,31.18-48.6,32.18-28.89,1.72-62.67-15.95-63-42.93l-31.55.4c3.76,43.42,40.45,69,96.48,69.4,48.93.38,75.53-26.69,77-55.24C717.16,244.32,708.57,224.27,665.17,208.89Z"></path><polygon class="cls-1" points="1139.33 203.69 1077.64 110.89 1042.41 110.89 1124.36 232.32 1124.36 327.6 1154.27 327.6 1154.27 232.35 1236.24 110.89 1201.02 110.89 1139.33 203.69"></polygon><path class="cls-1" d="M414.61,246.41c0,40.28-25.35,53.62-57.33,53.82-32-.2-57.32-13.54-57.32-53.82V107.82H269.84V255.88c0,26.35,19.75,71.24,86.73,71.87v0H358v0c67-.63,86.73-45.52,86.73-71.87V107.82H414.61Z"></path><polygon class="cls-1" points="363.02 64.16 297.59 18.21 313.06 0 378.48 45.95 363.02 64.16"></polygon><path class="cls-1" d="M1409.13,104.09a112.11,112.11,0,1,0,112.1,112.11A112.11,112.11,0,0,0,1409.13,104.09Zm0,196.34a84.23,84.23,0,1,1,84.23-84.23A84.23,84.23,0,0,1,1409.13,300.43Z"></path><circle class="cls-1" cx="1409.13" cy="387.17" r="18.94" transform="translate(-47.79 273.46) rotate(-10.9)"></circle><polygon class="cls-1" points="1416.17 64.16 1350.75 18.21 1366.21 0 1431.64 45.95 1416.17 64.16"></polygon><path class="cls-1" d="M886.59,111.21,797.85,327.59h31.33l23.87-58.81h97.51l23.87,58.81h31.33L917,111.21Zm-22.77,131,38-93.59,38,93.59Z"></path><polygon class="cls-1" points="880.87 49.26 946.3 3.31 961.76 21.52 896.34 67.47 880.87 49.26"></polygon></g></g></svg>